<?xml version="1.0" encoding="UTF-8"?>
<svg id="Capa_2" data-name="Capa 2" xmlns="http://www.w3.org/2000/svg" viewBox="0 0 94.83 94.83">
  <defs>
    <style>
      .cls-1 {
        fill: #b2b2b2;
      }
    </style>
  </defs>
  <g id="Capa_1-2" data-name="Capa 1">
    <path class="cls-1" d="m65.2,0c-16.9,0-29.64,7.65-29.64,17.78,0,.79.08,1.57.23,2.33-1.98-.23-4.03-.35-6.16-.35-16.9,0-29.64,7.65-29.64,17.78v39.51c0,10.14,12.74,17.78,29.64,17.78s29.64-7.65,29.64-17.78v-2.31c1.94.22,3.93.34,5.93.34,16.9,0,29.64-7.65,29.64-17.78V17.78c0-10.14-12.74-17.78-29.64-17.78Zm0,11.85c11.47,0,17.78,4.45,17.78,5.93s-6.31,5.93-17.78,5.93-17.78-4.45-17.78-5.93,6.31-5.93,17.78-5.93ZM29.64,31.61c11.47,0,17.78,4.45,17.78,5.93s-6.31,5.93-17.78,5.93-17.78-4.45-17.78-5.93,6.31-5.93,17.78-5.93Zm-17.78,20.35c4.89,2.13,11,3.36,17.78,3.36s12.89-1.23,17.78-3.36v5.34c0,1.48-6.31,5.93-17.78,5.93s-17.78-4.45-17.78-5.93v-5.34Zm17.78,31.02c-11.47,0-17.78-4.45-17.78-5.93v-5.34c4.89,2.13,11,3.36,17.78,3.36s12.89-1.23,17.78-3.36v5.34c0,1.48-6.31,5.93-17.78,5.93Zm35.56-19.76c-2.03,0-4.02-.15-5.93-.43v-7.81c1.94.22,3.93.34,5.93.34,6.78,0,12.89-1.23,17.78-3.36v5.34c0,1.48-6.31,5.93-17.78,5.93Zm0-19.76c-2.03,0-4.02-.15-5.93-.43v-5.5c0-.79-.08-1.57-.23-2.33,1.98.23,4.03.35,6.16.35,6.78,0,12.89-1.23,17.78-3.36v5.34c0,1.48-6.31,5.93-17.78,5.93Z"/>
  </g>
</svg>